<svg xmlns="http://www.w3.org/2000/svg" xml:space="preserve" width="1110.5336" height="300" viewBox="0 0 1110.5336 300"><path d="M666.611 455.416v-.018h-78.01v-14.997h77.193v-28.043h17.469v43.059H666.61zM620.167 462.716c17.153 0 31.112 13.273 31.112 29.58 0 5.495-1.746 10.717-4.915 15.264h10.565v14.365h-28.58v11.049h-17.025v-11.049h-29.196V507.56h11.498c-3.25-4.55-5.037-9.772-5.037-15.264 0-16.029 14.459-29.58 31.578-29.58m0 14.26c-8.106 0-14.697 6.623-14.697 14.76 0 8.136 6.591 14.762 14.697 14.762 8.109 0 14.69-6.626 14.69-14.762 0-8.137-6.581-14.76-14.69-14.76zM683.16 524.106h-17.478v-62.117h17.479c-.01 0 0 21.12 0 22.635h11.618v15.533H683.16v23.949zM301.079 495.18v18.125l-.047 9.16v.82h-86.505v-15.23h69.29v-27.882c0-.356-.235-34.826-5.259-43.542h-22.09v39.423h-16.645V436.63H202.58v-15.22h109.48v15.22h-16.417c1.338 4.28 5.436 20.467 5.436 58.549zM801.358 436.63c1.282 3.907 5.532 19.743 5.532 59.284v12.956l.13 13.594v.821h-86.676v-15.23h69.284v-27.253c0-7.62-.935-37.032-5.432-44.171h-8.639v38.952h-16.645v-38.952h-12.581v38.952h-16.636v-38.952h-21.313v-15.22h109.491v15.22h-16.515zM411.83 524.67v-19.826h-18.537V490.4h18.537v-16.68h-18.537v-14.436h18.537v-11.138c-6.411-6.387-21.954-6.03-22.108-6.019h-38.813v28.778h35.22v53.305h-53.857v-14.675h37.218v-23.388h-36.053v-.279h-.285v-45.283c.514-12.19 11.875-13.52 11.99-13.532l42.563.31c14.226 0 21.688 2.635 24.125 3.68v-17.268h17.476V524.67h-.812zM541.863 524.5v-39.644h-11.045V524.5h-15.995v-76.002c-7.16-4.63-19.823-4.334-19.96-4.327h-20.367v64.907h26.296v14.632H457.12v-80.555c.148-12.656 11.85-14 11.968-14.013.18-.006 11.853-.266 23.81.298 11.685.56 18.27 2.391 21.925 4.023v-19.54h15.995v55.445h11.045V413.92h15.994V524.5h-.82zM252.404 346.009c-1.462 1.1-2.83 2.14-5.795 5.247 0 0-12.516 13.86-14.427 15.966.483.605 14.56 17.813 14.566 17.813l.824.89h-7.099l-15.821-19.576v19.575h-7.155V344.59h7.155v21.158l16.521-18.376c1.363-1.85 3.822-2.782 7.273-2.782h5.91l-1.407 1.004c.006-.006-.545.415-.545.415zM275.07 387.135c-6.306.034-11.73-2.078-16.112-6.297-4.386-4.212-6.61-9.381-6.61-15.369 0-6.306 2.206-11.602 6.554-15.734 4.222-4.054 9.466-6.111 15.58-6.111 6.114 0 11.404 2.13 15.747 6.325 4.355 4.203 6.554 9.536 6.554 15.827 0 5.767-2.038 10.77-6.071 14.867-4.181 4.262-9.447 6.446-15.641 6.492m-.292-38.122c-4.314 0-7.954 1.81-10.788 5.365-2.66 3.305-4.005 7.217-4.005 11.646 0 4.572 1.354 8.378 4.02 11.314 2.658 2.921 6.236 4.402 10.646 4.402 4.315 0 7.902-1.781 10.664-5.3 2.53-3.261 3.826-7.263 3.826-11.894 0-4.494-1.307-8.245-3.875-11.137-2.67-2.918-6.201-4.396-10.488-4.396zM354.335 364.345l13.284-.012v5.424l-13.284-.01v10.715c2.917.068 16.264.006 16.406.006l.465-.006v5.556l-24.073.012v-.461l.006-40.978h25.764l.874 5.817-19.443-.012v13.95zM617.063 364.345l13.27-.012v5.424l-13.27-.01v10.715c2.903.068 16.246.006 16.395.006l.452-.006v5.556l-24.067.012v-.461l.021-40.978h25.749l.88 5.817-19.43-.012v13.95zM402.148 386.03h-6.628l-16.902-41.44h6.396l5.693 15.199h14.916c.211-.57 5.799-15.199 5.799-15.199h7.944l-16.908 41.44h-.31m1.18-20.759h-10.633c.415 1.072 4.659 11.81 5.365 13.616.703-1.821 4.856-12.547 5.268-13.616zM484.605 385.996h-4.98l.04-25.55c0-7.617-1.775-11.742-11.141-11.742h-1.093c-6.217 0-9.376 3.955-9.376 11.741l.034 25.55h-7.195l-.032-25.565c0-3.104.127-5.228.375-6.504.43-2.339 1.41-4.346 2.896-5.96 2.713-2.958 6.585-4.469 11.522-4.469h4.64c4.924 0 8.809 1.511 11.522 4.476 1.487 1.607 2.459 3.614 2.88 5.956.254 1.273.384 3.391.384 6.501l-.018 25.566h-.458zM529 385.996l-.034-.459s-.044-27.557-.05-29.995c-1.53 1.952-23.967 30.454-23.967 30.454h-6.232v-41.514h5.395s.038 28.595.038 31.044c1.53-1.966 24.308-31.016 24.308-31.016l5.978-.032v41.517H529zM548.454 385.996l-.012-41.514h7.155l.009 41.514h-7.152zM720.542 385.996l.012-9.162v-23.255l.044-9.097h7.142l.006 9.103v23.255l.012 8.694v.462h-7.217zM595.843 385.996s-11.076-30.324-11.878-32.535c-.802 2.218-11.668 32.535-11.668 32.535h-8.158l15.474-41.539 6.492.012 16.038 41.526H595.844zM706.604 365.528c-.04.021-5.569 2.739-5.569 2.739l-4.754 2.335c-3.494 1.83-5.256 3.825-5.256 5.928 0 1.772.777 3.073 2.422 3.977 1.254.725 3.041 1.056 5.268.991 3.621-.093 7.335-1.174 9.27-2.679l.74-.573v7.35l-.312.102c-2.92.923-6.07 1.382-9.354 1.382-4.293 0-7.923-.846-10.791-2.521-3.423-1.967-5.16-4.882-5.16-8.654 0-3.844 1.914-7.044 5.733-9.503.04-.032 2.053-1.019 2.053-1.019l8.283-4.067c3.481-1.824 5.247-3.961 5.247-6.362 0-1.809-.939-3.264-2.868-4.413-1.716-1.029-3.566-1.54-5.508-1.528-4.46.032-8.635 1.153-12.432 3.333l-.824.484 1.071-7.242.27-.093c3.367-1.252 7.133-1.887 11.206-1.887 5.09 0 9.444 1.326 12.563 3.801 2.943 2.391 4.436 5.556 4.436 9.416 0 3.364-1.927 6.284-5.734 8.704zM735.354 386.166v-.455l-.03-5s10.732-.005 11.58-.011v-36.1h7.168l.018 36.1c.846-.003 11.813-.018 11.813-.018v5.482l-30.552.003zM800.64 386.098s-10.609-16.342-11.35-17.466c-.712 1.133-11.1 17.53-11.1 17.53h-8.257s14.78-23.254 14.929-23.474l-.047-18.089h7.214l.006 18.074c.165.235 15.561 23.425 15.561 23.425h-6.956zM332.839 353.941c0 .003-6.873 8.595-8.607 10.763 1.424.511 3.918 1.636 5.798 3.621 2.081 2.16 3.128 4.64 3.128 7.322 0 3.048-1.15 5.542-3.413 7.437-2.376 1.951-5.656 2.94-9.763 2.94H306.217l-.009-41.434h7.39v.635c-.182 1.388-.2 3.525-.2 8.434v27.201c6.764.065 9.452-.787 10.5-1.524 1.418-1.01 2.105-2.459 2.096-4.435-.03-4.59-3.373-7.325-10.255-8.354l-.778-.114 14.511-18.594c1.726-2.158 4.244-3.249 7.5-3.249h5.924l-1.226.833c-2.952 2.017-6.167 5.117-8.83 8.518zM669.92 353.941c-.007.003-6.874 8.595-8.608 10.763 1.425.511 3.909 1.636 5.807 3.621 2.073 2.16 3.129 4.64 3.129 7.322 0 3.045-1.153 5.542-3.426 7.437-2.366 1.951-5.656 2.94-9.766 2.94h-13.755V344.59h7.378v.635c-.183 1.388-.202 3.41-.202 8.434v27.201c6.768.065 9.45-.787 10.503-1.524 1.422-1.003 2.1-2.459 2.094-4.435-.03-4.59-3.376-7.325-10.252-8.354l-.78-.114 14.523-18.594c1.716-2.158 4.24-3.249 7.486-3.249h5.922l-1.22.833c-2.949 2.017-6.176 5.117-8.833 8.518z" style="fill:#d8cbb7;fill-opacity:1;fill-rule:nonzero;stroke:none;stroke-width:3.17169" transform="matrix(1.33333 0 0 -1.33333 20.036 715.059)"/><path d="M427.991 891.822v231.646H109.622V891.7c-.033-3.383-.231-84.825 57.762-133.108l-.132.11c1.819-1.62 45.187-39.655 99.091-62.865l1.059-.452h2.898l1.103.518c51.876 24.07 99.18 62.258 99.665 62.644 58.07 48.35 57 129.825 56.923 133.275z" style="fill:#d8cbb7;fill-opacity:1;fill-rule:nonzero;stroke:none" transform="matrix(.7008 0 0 -.7008 -76.822 787.325)"/><path d="M384.667 939.452c0 .06 0 .078 0 0zM384.667 939.452c0-.016.023-.043.023-.077 0-.005.021-.01.021-.022-.021.044-.021.077-.044.1zM421.809 996.278H115.728v121.652h306.08V996.278zM243.883 743.966h4.055c.573 0 .353.508.353.508-1.642 7.317-.782 13.049-.463 14.757 0 0 .154.507-.43.507h-4.022c-.53 0-.342-.43-.342-.43 1.377-5.621.849-12.73.496-14.79 0 0-.254-.552.353-.552zM261.263 746.203c-3.097-.088-3.846 4.74-3.846 4.74-.805 5.301 1.267 5.598 1.267 5.598 2.182.684 3.119-3.835 3.119-3.835 1.058-5.191-.54-6.503-.54-6.503zm-2.315 13.976c-6.475-.617-6.083-8.211-6.083-8.211.408-6.866 7.527-8.167 7.527-8.167-1.95-5.268-7.141-6.833-7.141-6.833-1.224-.485-.331-.826-.331-.826 1.554-.519 3.813.386 3.813.386 9.511 4.264 9.765 14.239 9.765 14.239.198 10.161-7.55 9.412-7.55 9.412M277.332 746.843c-2.8-1.025-3.108 4.695-3.108 4.695-.286 5.455 1.918 5.985 1.918 5.985 2.259.561 2.888-3.439 2.888-3.439 1.002-6.216-1.698-7.241-1.698-7.241zm5.62 7.186s-.87 6.304-6.777 6.238c0 0-5.842.154-6.106-7.946 0 0-.232-8.553 7.164-8.178 0 0 7.24.452 5.72 9.886M284.683 741.95c6.255-1.224 7.891 3.196 7.891 3.196 1.995 6.271-5.841 6.568-5.841 6.568l1.256 8.08s7.87-.376 9.974.671c0 0 .485.331.216-.849 0 0-.447-2.689-3.004-2.887l-3.868-.32-.364-2.27s6.68.143 6.557-7.087c0 0-.242-5.576-6.777-6.954 0 0-3.053-.672-6.591.771 0 0-.53.254-.242.684 0 0 .242.518.793.396zM261.66 893.2c.501.594 1.135.175 1.664 0 .507-.144.518-1.125.81-1.632.16-.353 1.13-1.333 1.229-1.642.782-3.637 0-8.398-1.631-11.153-.474-.849-1.223-1.301-1.753-1.324-.683-.054-.904.949-1.146 1.324-1.047 1.466-.253 4.937 0 6.568.276 2.094-1.356 5.455-.32 6.987 0 0 1.124.871 1.147.871zM212.252 889.364c.882.264 2.16-.176 2.694 0l1.185.485c1.378.892 2.733.628 4.133.496.694-.089 2.755-.981 3.433-1.003 1.097-.121 6.288-.684 11.82-1.488-.044.022 2.954.408 2.194 1.234.473-.54-.077.442-1.202.838l-.396.419c.043.044-.96.826.826 1.433-.672-.21 1.18.264 1.532.66.716.761-.33 1.588-.33 1.588-2.624.881-5.555-.793-9.479-.386-1.94.154-4.673 1.267-7.406.815-2.965-.528-7.318-2.193-9.39-3.813 0 0-1.003-1.73.386-1.278zM245.315 910.77c2.667.16 2.8-2.613 2.855-2.32-.304-1.978-5.158-2.155-6.305-3.7-3.394-4.409-1.972-8.63-9.99-9.082 0 0-1.615.374-.997 1.036.506.529 2.435 1.047 3.151 1.477 1.037.606.96 2.27 1.643 3.295.143.254 1.036.573 1.267.794 2.248 3.045 2.502 6.119 6.47 7.921.165.105 1.609.524 1.906.579z" style="fill:#880827;fill-opacity:1;fill-rule:nonzero;stroke:none" transform="matrix(.7008 0 0 -.7008 -76.822 787.325)"/><path d="M270.973 922.65c.914.519 1.818 0 2.413-.534.364-.253 3.284-7.28 3.417-7.974.375-2.557.661-8.453-.033-10.34-.98-2.635-3.417-4.662-2.888-9.347.287-2.744 1.5-4.882 2.656-7.273.132-.398 1.345-2.734 1.411-3.219.44-2.523-.925-5.774-1.146-7.803-.607-5.069 1.422-9.682.617-14.51-.352-2.082-1.025-3.14-2.17-4.418l-.905-.784c-.253-.495-.705-.671-1.157-1.024l-.562-.573c-.86-.198-.948-.705-1.3-.75-2.171-.474-2.613.794-2.48.496-2.194 6.205 1.487 13.452-.398 19.436-.43 1.378-2.055 2.745-2.27 4.21-.76 5.378 4.266 8.2 4.2 11.815 0 2.579-3.384 5.907-4.156 8.442-.959 2.988-1.587 8.671-.275 12.386.297.903 1.466 2.418 1.786 3.62.617 2.315 1.564 4.221 1.895 5.764.121.474.42 1.146.661 1.593.088.154.53.71.684.788zM335.017 935.463c3.637.424 5.257-1.014 3.56-4.1l-.706-.672c-.298-.105-1.267-1.367-1.466-1.543-1.735-1.29-3.405-2.083-4.728-3.725-.463-.546-.837-1.946-1.41-2.43-.904-.646-4.376-2.177-5.257-2.332-4.387-.705-10.35 3.676-11.01 6.205-.562 2.171 0 4.282.947 4.778 1.466.75 5.39.364 6.712.496 3.395.253 5.511.072 8.101.964 1.587.507 3.372 2.138 5.257 2.359zM316.33 936.923s2.045-.86 3.897-.408c1.3.326 3.714 1.433 4.926 1.648.738.176 1.774-.198 2.501 0 2.006.612 5.688 4.524 1.268 4.949-1.598.154-6.393-1.648-7.87-2.067-1.498-.38-2.435-.634-3.669-1.279-.331-.187-2.039-1.592-1.84-1.355 0 0-1.125-.942.787-1.488zM284.75 929.511c-1.302.182-1.302 2.348-4.542 1.648-2.259-.48-2.876-3.802-6.182-3.72l-1.631.805c-1.445.342-2.469-.154-3.726.457-5.808 2.717 4.497 16.659 7.825 16.472.176 0 1.896-.629 2.105-.816 1.036-.898 1.036-4.789 2.017-6.194.75-.986 1.907-.91 2.91-1.648 1.046-.799 3.042-3.538 3.279-4.97 0 0 .545-2.38-2.056-2.034zM338.4 816.894c.066.077.066.077 0 0zM338.4 816.894l-.011-.023c.012 0 .012 0 .012.023zM332.625 943.382c.033.077.077.149.1.214-.11-.226-.133-.258-.1-.214zM307.541 872.975s-.05 0-.077.022c.077-.054.099-.054.077-.022zM233.622 906.714c-2.31-.53-2.524 4.398-8.068 2.474-.297-.099-1.857-1.531-1.983-1.763-.65-1.466-.31-5.222-1.037-5.574 0 0-2.16-.54-1.73 2.193.65 4.334 1.499 5.144 3.681 6.974.298.237 1.124.848 1.56.948 2.606.6 7.433-.403 8.315-1.736.738-1.102-.837-3.55-.738-3.516zm26.12 21.767c-2.248-1.257-7.153-3.19-8.178-5.367-.573-1.146-.573-2.139-1.036-3.516-.055-.144-.672-.386-.87-.805-2.392 0-4.497.15-6.569-.407-1.631-.458-3.956-2.183-5.759-2.491-3.675-.629-6.475.997-9.902.418-1.532-.275-2.524-1.851-3.78-2.49-1.058-.519-1.51-.519-2.337-1.284l-.771-.87a12.628 12.628 0 0 0-.728-1.566c-.75-1.119-1.047-2.265-1.223-3.472-.177-1.174-.871-3.986-1.477-5.155-.298-.562-1.852-1.819-2.083-2.336-.11-.353-.452-.706 0-1.234-.53.584-.419-.574 2.557-.728 3.262-.066 10.382 2.104 10.382 2.104l3.416 1.841c.662.519 3.312 2.525 3.891 3.22 2.48 3.076 9.148 14.323 14.317 11.386l.936-.666c1.234-2.078-.314-8.013-1.25-9.374l-1.164-1.392c-.936-.297-1.586-2.7-1.719-3.802-.22-1.785.298-3.383.436-4.376.259-2.137.49-4.827-.822-7.471-.286-.507-1.036-1.422-.848-2.855.243-1.62 2.546-2.8 2.876-4.144.204-.672.794-.783 0-2.06-.43-.695-2.314-1.875-2.876-2.48-.738-.75-.1-1.94.408-2.414 1.421-1.29 2.6-1.455 3.709-2.932 1.57-2.028 1.481-3.791 4.953-4.133 2.734-.242 6.602-.396 4.96 3.318l-.816 1.388c-.97 2.425-2.667 4.596-2.893 7.252-.325 3.372 2.398 5.092 1.251 7.825-.914 2.094-5.025 1.863-5.367 4.585-.176 1.52 1.367 4.739 1.653 6.183.32 1.983-.21 3.24.43 4.937.408 1.224 2.22 2.587 2.414 4.103.396 2.727-1.72 4.447-.805 7.423.452 1.537 2.854 1.36 3.747 2.49 1.135 1.532.507 3.643 1.212 5.792.072.243.662 1.526.772 1.752-.066.094.474 2.761.474 2.761-.353 1.67-1.4.987-1.521 1.042" style="fill:#880827;fill-opacity:1;fill-rule:nonzero;stroke:none" transform="matrix(.7008 0 0 -.7008 -76.822 787.325)"/><path d="M170.955 849.505a83.133 83.133 0 0 1 6.271 4.211 25.035 25.035 0 0 1 3.02-2.998c-1.168-.309-4.783-.76-9.29-1.213zm-8.916 7.484c4.276 1.19 8.056 2.424 9.633 3.34.578.043 1.124.043 1.697.077.242-1.135.694-2.292 1.355-3.439.16-.242.309-.463.441-.661-2.579-.056-7.803.275-13.126.683m41.319-15.485c3.25.772 4.22-.066 5.764-3.758 1.157-2.193 3.56-5.091 4.496-6.47-3.747-.429-9.698 4.684-11.363 7.473-1.058 1.377.551 2.47 1.103 2.755m7.361 11.781c-.165-.077-.187-.098.056.023a.177.177 0 0 1-.056-.023c.607.265 3.274 1.522 3.98 1.787 2.81.99 4.309-.519 6.91.925.606.374 1.29 1.377 1.851 1.83.485.44 1.389.396 1.962.804 1.433.97 4.11 4.045 5.962 4.375 1.059.2 1.047-.077 1.599-.132 0-.11.782.155.572-1.422-.484-3.052 6.696.034 11.418-1.08 3.197-.771 6.316-1.862 5.5-3.923.1.22-.948-.64-1.195-.793-2.21-1.599-3.93.154-5.054.319-1.928.22-3.295-.363-5.268-.121 0 .033-2.359.794-2.359.794-1.499.077-3.659-.695-4.794-.794-2.171-.165-3.23.606-5.169.396-.959-.11-2.49-1.355-3.174-1.597-.639-.232-1.377-.452-2.006-.65-.419-.1-1.487-.695-1.984-.927-1.961-.959-3.13-.959-5.565-1.609l-1.411-.374c-3.02-.408-2.716 1.664-1.775 2.192m42.498-16.2c1.554-2.337 3.692-3.704 3.571-8.73-.143-1.223.254-1.476 1.29-1.388.936.275.419 6.062 3.235 5.698 2.385-.352.777-3.67 1.945-7.406.44-1.334 3.14-6.117 2.424-14.306-.077-2.116-4.1-4.87-6.392-3.262-1.885 1.146-1.885 2.546-2.96 11.209-.467 5.114-6.705 6.866-9.34 9.203-2.656 1.95-1.146 2.909-1.63 6.458-1.521 5.136-7.506 7.538-5.5 10.955.628.849 1.223 1.653 3.119.926.11-2.535 6.183-4.508 10.238-9.358m-.958-35.906c-1.196 1.058-10.096 10.459-7.875 14.823 2.447-2.458 9.241-8.707 11.666-9.313.683-1.796.584-6.712-3.791-5.51m-10.68.022c-1.427 0-10.613 7.737-9.23 12.542 2.717-2.017 8.822-6.271 9.594-6.194.816-.474 1.465-5.798-.364-6.348m-22.693 41.715c-.804.904-.12 2.656 1.378 3.395 2.755 1.311 3.88-.2 4.486-.926 2.678-4.144 6.138-9.522 8.706-11.661-2.38-.231-11.241 2.48-14.57 9.192m165.804 96.46c-.398 2.017-5.864 1.868-8.074 4.563-.82 1.07-.214 1.664 0 2.47.623 2.352 5.626.952 6.795 3.046.463.876.639 3.466.33 3.82-3.14 3.845-9.758 2.016-14.437 3.884-2.248.92-5.059 2.794-7.417 3.681-2.977 1.146-5.28 1.306-8.244 2.486-.684.292-2.006 1.261-2.711 1.548-3.318 1.333-5.93 1.603-9.226 3.003-.396.143-1.393.717-1.829.893-1.322.568-1.741.65-3.13 1.162-5.114 1.852-11.605 3.478-18.989 3.015-3.24-.17-6.966.419-11.97-.997-1.718-.436-4.127-1.93-5.753-2.436-1.146-.342-2.116-.54-3.152-.992-1.443-.579-2.71-1.422-4.684-1.89-5.665-1.267-13.236.127-18.978-.832-4.982-.8-7.858-3.94-11.958-5.362-1.246-.408-1.763-.28-2.998-.728-.71-.247-2.408-.694-2.986-1.019-1.72-.882-2.822-1.14-4.751-1.95-.97-.436-2.116-1.323-3.053-1.759-1.377-.683-1.466-.876-2.6-1.708l-.937-.677s-2.017-1.764-2.26-2.073c-.804-.837-1.576-1.994-2.27-2.87-2.094-2.442-5.246-5.511-7.847-7.401-.96-.684-1.61-.54-2.458-1.262-.98-.75-1.835-1.56-2.788-2.27-2.172-1.55-4.315-2.574-6.701-3.88l-1.532-1.025c-2.017-1.317-1.94-1.857-4.023-3.174-1.378-.932-1.962-2.337-3.218-3.406-.827-.634-1.774-2.65-2.326-3.51-2.595-3.797-3.57-9.39-5.411-14.085-.562-1.345-5.059-7.839-6.183-8.247l-.827-.782c-.639-.54-.639-.705-1.223-1.279-1.334-1.18-2.678-1.862-3.692-3.306-.849-1.124-1.334-2.436-2.105-3.68-1.18-1.941-3.13-4.09-4.11-6.206-.392-.782-.673-1.565-.955-2.314-.115-.11-.181-.243-.214-.243-.507-.64-1.367-3.306-1.367-3.306-.926-2.117-3.097-3.307-5.984-7.417-3.362-.243-14.967 2.7-22.847 6.435 1.763-1.96 10.624-7.913 20.984-9.048-.694-1.013-.75-2.045-1.995-2.375-4.144-1.025-11.351 1.24-21.04 4.623.563-1.344 9.093-6.353 21.69-7.114-1.862-2.193-19.176-1.653-32.7 2.04-.517-1.412 16.907-5.29 26.495-5.159-1.647-.849-5.95-1.818-8.728-2.821-4.354.485-10.438 1.245-11.627 1.697.275-.882 4.584-2.06 8.166-2.888-3.438-1.222-8.53-1.94-10.503-2.347 1.443-.374 6.965.518 12.768 1.907 5.086-.982 12.867-1.984 17.143-1.797-1.08-.528-5.114-3.13-8.277-4.981-8.133-.772-16.983-1.444-18.89-1.687 1.08-.165 8.211-.275 15.804-.077-4.65-2.732-9.588-5.565-11.98-6.646 3.539.905 9.82 3.307 16.257 6.756 6.381.243 12.366.761 14.856 1.654-.848-1.863-6.017-10.768-10.806-12.828 2.072.34 8.734 2.214 12.757 12.31 1.433-.617 3.064-.981 4.96-1.092 1.057-1.597 3.57-5.72 8.343-5.95.97-2.768 9.797-17.172 22.208-11.55-3.582 1.939-5.754 3.967-7.517 9.708 5.5.354 20.08-7.637 24.467-24.919-3.45 1.158-7.77 3.163-8.233 4.894-.931-4-1.565-9.158 7.274-18.064.165-1.895.143-4.188.546-6.337 1.46-1.521 3.146-2.667 4.7-3.99.122-2.502-.231-5.95 6.349-7.869 2.237-1.862 9.434-3.835 10.486-5.07 2.144-.683 5.318-.826 7.643-.683 0 0 3.12.519 3.958 1.72 1.553.088 3.68.132 13.224 10.315 2.006 2.392 0 15.551.496 18.747.938 2.326 1.345 4.464 2.613 7.319 0 0 1.3 2.821 3.747 3.956.154.077.297.077.506.133 5.5 1.234 12.67-3.913 16.047-5.346 1.235-.518 1.89-.242 2.888-.849.485-.253 1.168-1.377 1.664-1.653 1.213-.683 2.38-.495 3.736-1.212 1.962-1.102 5.974-6.9 9.468-6.226 1.08.263 1.94 2.744 2.876 3.338 1.62 1.003 3.89.905 5.357 2.04 1.653 1.311.98 2.777 1.223 4.562 0 .077.782.915.849 1.257.821.088 2.6.01 3.724.363.144.066.618.606.816.815.706.74.187 1.533 0 2.14-.253.66-1.94 1.443-2.469 2.005-1.234 1.234-3.361 3.03-4.143 4.53-.375.76.087.925-.42 1.697-.55.86-1.994 1.753-2.435 2.854-1.598 3.538-.948 11.43-1.664 12.531-.65 1.059-1.455.926-2.105 1.908-1.367 2.181.33 9.18.441 11.958.132 2.225-2.05.836-2.05.836-1.807-4.44-1.62-6.414-2.061-12.794-.067-.552-.838-3.957-.838-4.552-.022-2.227 1.279-5.996.408-8.663-.298-.86-2.089-2.535-4.535-2.469-.932 0-5.544 1.201-6.597 1.643-.198.098-1.179 1.222-1.245 1.255-2.292 1.819-2.782.11-2.888-.793-.077-.959.32-1.135.507-1.665.089-.528 1.015-2.5.915-2.667-.033-.209-.826-2.369-5.125.166-3.228 1.95-6.425 7.34-6.59 8.266-.441 2.06.187 3.626.595 4.331 1.61 1.455 3.526-.561 5.136-1.433.408-.209 1.4-.915 1.895-1.013.949-.155 2.47.176 2.667.176 6.272.364 12.752-1.896 13.854 2.303.706 2.634-1.884 4.056-2.347 5.147-.596 1.334-.287 1.433-.629 2.91-.049.11-.484 1.058-.573 1.179-.65 1.102-.187 2.061-.815 3.296-.662 1.344-2.513 2.149-3.295 3.306-1.059 1.52-1.059 3.427-2.492 4.552-2.116 1.73-10.569 4.243-11.55 6.204-1.609 3.114.376 8.845-.396 12.758-.43 2.292-1.18 3.537-2.562 4.959-.557.552-.81 1.378-.613 2.116.365 1.378 1.092 1.003 1.51 4.078.254 1.687-.154 3.593 0 5.345.012.287.816 2.987.849 3.307.385 4.607-.21 9.42-1.235 12.749-.473 1.625-1.983 3.025-2.48 4.568-.44 1.29.078 2.033-.44 3.317-.408 1.13-1.851 1.918-2.424 2.849-1.124 1.643-.794 4.436-2.502 5.378-1.257.695-1.708-.275-1.62 0-.42-1.51-.332-2.986.396-4.943.309-.843 1.852-2.06 2.095-2.898.32-1.516-.243-3.367 0-4.954l.793-1.659c.64-4.138-1.62-9.635-3.284-11.928-1.18-1.543-4.729-3.493-4.938-5.786-.177-1.421.397-1.477.76-2.071.53-.75 2.249-1.742 2.491-2.458.204-.54.408-.44.629-.97l.209-1.124c.275-2.888-3.483-3.538-1.653-7 .518-1.002 2.28-1.002 3.279-1.63 1.868-1.19 5.428-4.53 5.77-7.396.154-1.255-.012-7.896-.376-8.69-.859-1.83-5.488-2.557-4.96-6.193.574-3.968 11.044-2.844 13.987-4.927 1.4-.98 1.686-3.108 2.105-4.992.242-1.026-.783-1.378-1.246-1.61-1.101-.64-1.895-.143-3.295-.44-3.405-.694-8.839-2.216-10.271-4.96-1.786-3.14.32-7.473-.43-11.099-.76-3.284-3.219-7.273-4.993-9.93-1.09-1.609-2.48-3.206-3.009-5.477-1.212-4.86-.352-10.602-.717-16.322l-.065-.044s.209-2.954-1.786-5.114c-2.27-2.492-10.106-9.831-15.683-9.831-2.06.055-2.91.738-5.158 2.38-1.433.11-4.695.904-6.58 2.876-.584 1.048-6.745 7.286-2.876 9.06 3.653 1.676 9.522-1.973 12.255-3.725 1.103 0 9.06-.397 17.513 10.68-.408 5.797-.881 13.225-1.521 14.581-.87 2.832-5.676 7.87-6.7 10.866-.64 2.448-1.775 7.23-1.036 10.559-.32 3.703-2.668 4.519-3.627 7.517-.275.749-.595 1.344-.76 1.576-.287 1.09-.485 2.06-1.157 3.052-1.466 2.238-2.899 2.722-4.243 4.916-1.4 2.28-1.158 5.114-3.307 6.601-1.19.794-2.777.871-4.11 1.643-.97.573-2.183 1.978-3.307 2.474-1.3.574-1.653.75-2.976 1.333-.65.309-1.819.838-2.38 1.124-.585.342-1.18.056-1.653.442-1.599 1.355-.453 2.579-1.246 4.926-.066.287-.683.297-.827.827-.66.176-1.818 1.223-2.71.594-1.235-.903-1.588-.638-2.348-2.534-.452-1.234-1.279-4.893-2.116-5.798-.75-.88-1.698-2.104-2.85-2.925-1.107-.574-2.055-.507-2.055-.507l-3.097-.452-1.526-2.359s-1.692.22-2.574.22c-.242-.572-2.281-2.126-2.92-2.678-2.612-1.531-4.222-.451-4.398.11-.121.486-.958 1.522.816 2.569 6.05 1.697 13.457 9.792 14.085 11.545-.771-1.18-13.286-8.085-15.606-9.022 2.49 5.903 17.821 14.543 18.758 15.557-3.923-.584-16.995-8.486-19.26-11.98-2.176-3.51-4.733-2.53-7.125-2.43-2.348.088-2.149-2.436-2.26-3.968-.032-1.52-1.19-4.574-.22-5.125 1.615-1.378 5.83 4.21 7.175 1.213.727-3.362-7.946-3.208-7.88-5.919-.408-1.433 8.023-1.929 9.566-3.45-2.7-1.984-9.335-2.612-11.307-2.711-1.224-.099-2.337-.044-2.976.056-1.091.187-2.524 1.19-3.791 3.25-2.403 4.354 1.653 7.352 1.719 8.476.1 1.168-.452.54-.529 2.38-.066 1.83 1.984 2.128 2.513 2.514.573.419-.154.914-.022 2.688 1.069 4.018 7.604 8.636 5.94 9.925-1.52.805-4.695-2.7-5.918-4.287-4.497-5.792-9.743-3.979-11.528-4.056-3.968-.209-3.274 4.133-.497 3.824 3.197.661 2.97 5.081 5.236 4.64.743-3.229-2.855-3.691-1.18-4.408 2.298-.904 2.513 2.083 3.23 3.34.694 1.267 3.901 4.022 3.538 4.727-.926.32-3.296-1.366-4.37-2.204-2.618 6.514 3.95 11.484 4.293 13.413 2.148 3.405 14.217 7.77 14.448 12.939l.33.298s.221.131.585-.474h.022c.088-.309.143-.65.231-1.003a4.117 4.117 0 0 0-.022-.805l.067.507c.099-.815.055-1.51.099-1.334v-.782c.099-.474.716-.716.804-.76.265.044.915.264 1.543.98.1.1.805.772.805.926 1.157.849 1.366.97 2.171 2.127 2.083 3.017-1.918 7.437-.805 11.515.761 2.71 3.284 5.902 3.284 5.902.684 1.548-.396 1.532-.396 1.532-1.576.292-2.7-1.411-2.458-1.19-2.05-1.918-2.656-2.85-4.144-5.412 0 0-1.234-1.13-1.609.418-.716 2.558 2.182 7.578 3.097 8.223 1.698 1.157 3.422 1.658 5.533 2.529 1.085.446 2.667 2.16 3.725 2.447.529.181 1.102.286 1.642 0 0 0 .799-.585.43-2.447 0 0-.816-2.237-.54-3.059.176-.55.11-1.08 1.355-1.08 2.976-.06 9.59.634 11.529 1.676.44.17.881.82 1.267 1.2.606.624.452 1.544 0 1.637l-1.267.42c.97.137-5.582.192-4.53.385-1.157-.193 1.543 3.047 1.234 4.596-.132.722-1.41 1.03-1.653 1.61-.132.374-.821.92 0 1.25l.965.402c.302.237.66.617 1.096.821 2.072.97 5.808.49 7.429 0 .176-.082 2.832-.821 3.725-3.295.22-.7.407-1.477.815-2.083 1.256-1.703 4.872-2.32 7.01-.292.418.391.936 1.361 1.256 1.923 2.116 4.86-1.025 8.167-4.982 9.511-1.581.574-4.176.733-6.172 1.251-1.41.397-.562 1.582-.176 1.935l.607.534c.793 1.157 3.24 2.193 4.143 2.469 2.177.827 4.32 1.647 7.418.391.451-.154 1.653-1.107 2.005-1.201 2.348-.585 3.23-.76 5.4.374.871.425.74.53.828.805.771 2.204-.772 3.675-.717 3.433-.463 2.976 8.03-.689 9.335 1.18 1.256 1.697.44 4.932 2.083 6.171.188.105 1.157.788 1.235.81 1.58.336 2.964-.314 4.22-.81l1.345-.639c2.679-1.108 4.981-1.703 6.437-3.89.903-1.438.738-3.51 1.62-4.977.385-.617 1.267-1.02 1.708-1.647.385-.452 1.102-.755 1.609-1.036.76-.48 1.058-.673 2.05-.987.727-.291 1.78-1.394 2.48-1.68 2.513-1.025 5.533-.882 8.254-.816 1.61.066 2.569-.881 4.1-.419.794.265.562 1.66.066 2.243-.97 1.256-1.719.953-3.35 1.885-.628.391-1.444 1.659-2.072 2.038-1.884 1.224-4.607 1.4-5.764 3.318-.143.298-.364.848-.397 1.202l-.452.875c-2.281 4.619-3.009 7.368-.815 8.239 1.367.518 4.342.22 5.808.816.33.181.976 1.112 1.212 1.245 3.274 1.554 9.435 3.372 12.807 1.642 1.014-.48 0-3.103.386-4.116.21-.447.958-1.213 1.83-1.466 7.075-1.907 14.151-1.598 19.341-4.05 3.114-1.46 5.478-3.747 8.266-6.167 2.392-2.132-.44-4.535 2.018-5.251-1.687-.226-3.109-.414-3.407.462-.077.215-.584.987-.826 1.213-1.851 1.758-4.012 4.475-6.58 5.356-1.322.485-1.917.072-3.328.435l-1.653.562c-1.786.497-1.912.326-3.681.69-.766.154-2.535 1.113-3.317 1.195-3.505.524-5.467-.887-8.663 0-1.483.435-3.383 2.783-4.574 3.405-1.488.844-2.854 1.13-4.508 1.665-.672.182-1.025.182-1.521-.072-.914-.534-.605-1.35-.132-2.033.265-.358.502-.976.816-1.174 1.168-.843 3.494-.843 4.132-2.06 1.819-3.6-.848-4.861-1.234-5.93-.198-.65-.694-1.163 0-2.04.386-.457 1.207-1.04 1.664-1.212 1.676-.722 2.998-.446 4.552-1.256 1.113-.59 2.282-2.59 3.703-2.91 3.307-.705 4.1 1.736 5.765 2.1 2.391.529 3.868-.733 6.612 0 .904.248 1.411 1.317 2.039 1.62 1.587.838 3.163.953 4.155.446 0 0 1.047-.506-.43-1.256-.87-.469-1.576-.469-2.468-.915-.59-.32-1.124-1.163-1.224-1.3-.286-.573-.473-1.439-.463-1.494.265-.468.617-.722.838-.843 2.876-.992 5.808.866 8.277 1.24 1.83.292 6.938 0 8.398-1.119 0 0 1.366-.28.485-2.755-.551-1.488-2.9-2.568-3.78-3.83-.53-.71-1.092-2.066-1.62-2.766-.882-1.124-1.036-1.086-1.918-2.122l-.596-.876c-.363-1.063-4.562-4.623-5.355-5.824-.475-.706-.695-1.45-1.186-2.216-.765-1.074-1.305-1.256-1.702-1.906-1.19-1.748-3.565-5.274-5.533-6.167-.87-.37-2.094.039-3.317.281-.827.22-1.72 1.747-2.436 2.078-2.888 1.322-6.1.942-8.64 2.474-1.279.766-2.447 2.981-3.351 4.128-.595.776-1.146 2.143-2.05 2.501-1.477.513-5.07.04-5.764-1.24-1.367-2.595 2.194-9.263 2.49-11.996.21-2.326-.859-3.39 0-5.335.386-1 1.94-1.253 2.448-2.057 2.237-3.528.286-8.498.826-13.193.198-1.466 1.075-3.284.815-5.39-.341-3.294-4.585-6.127-2.876-11.12.066-.22.876-.794.926-.86.65-.32 1.697-.186 2.38.023 1.378.473 2.712 3.23 4.155 4.11.133.166.607.408.871.408.16.276.54.309.76.408.623.463.849.474 1.213 1.245.584 1.334.397 2.657.838 4.563.418 1.576 1.873 4.376 2.071 6.194.507 5.036-3.163 14.923-.54 16.546 1.015.622 2.006 1.813 3.747 2.077.761.182 3.252-.579 4.32-.55-.01-.029-.032-.034-.032-.045-1.334-3.16 3.615-11.404 3.229-15.955-.97-11.088-8.2-17.216-14.46-23.134-.727-.705-.11-1.51.425-2.062 1.24-1.174 4.26-.655 5.803-.402 2.258.458 3.273 1.482 4.937 2.045.617.254 1.366-.144 2.06 0 1.698.473 3.153 2.777 4.112 4.177 0 0 2.016 2.171 2.446-.706l.044-.154c0-2.678-.474-5.615 0-8.227.485-3.097 6.14-12.399 9.082-12.818 6.856-1.013-.165 7.638-.452 8.255-1.113 2.623-2.204 7.274-2.05 10.718.033 1.257 1.091 3.813 1.224 4.981.077.596-.232 1.962 0 2.437.55 1.101 4.187 1.466 4.981 2.91.198.418-.11 1.156 0 1.63.155.992.882 2.833 1.654 3.692.49.618 1.2.97 2.05 0 .715-.794.903-2.645 2.082-3.967l1.014-1.114c1.213-.782 3.186.254 2.667.144 1.278.352 1.124 1.642 1.664 2.094.089.077.816.385.816.385 2.964 3.076-3.648 5.842-3.725 8.685-.055 3.163.717 6.811-.386 10.306-.275.87-1.885 2.104-2.083 2.876-.44 1.998.595 4.097.826 5.353.475 2.64-.43 6.696.431 7.858.495.64 1.29 1.108 2.876.832 1.047-.192 1.741-1.9 2.469-2.48 2.7-2.17 5.842-3.383 10.327-2.87.55.016 1.014.854 1.113 1.096.297.816.232 1.88-.287 2.596-1.63 2.182-7.913 3.84-8.243 4.926-.254.805-1.246 1.885-.154 2.43-.596-.341 3.868.133 5.488.469 2.104.463 2.259 2.551 3.714 3.284 2.05 1.08 5.07.138 6.232 2.056.661 1.245.127 3.02.788 4.15.816 1.46 3.263 1.757 4.519 2.909.386.336.21 1.614.133 2.017" style="fill:#880827;fill-opacity:1;fill-rule:nonzero;stroke:none" transform="matrix(.7008 0 0 -.7008 -76.822 787.325)"/><path d="M210.72 853.285a.179.179 0 0 0 .055.023c-.243-.121-.22-.1-.056-.023z" style="fill:#880827;fill-opacity:1;fill-rule:nonzero;stroke:none" transform="matrix(.7008 0 0 -.7008 -76.822 787.325)"/><path d="M121.326 1109.264V1107h295.689v2.264H121.326zM121.326 1045.964v-2.27h295.689v2.27H121.326zM120.654 1008.161v-2.253h295.7v2.253h-295.7zM176.433 1055.64c-1.576 1.197-3.075 2.332-6.316 5.726 0 0-13.666 15.122-15.749 17.425.53.65 15.893 19.43 15.893 19.441l.915.96h-7.759l-17.249-21.36v21.36h-7.825v-45.11h7.825v23.105l18.02-20.064c1.499-2.006 4.177-3.042 7.935-3.042h6.448l-1.543 1.102c.022 0-.595.458-.595.458zM213.09 1058.914c-4.696 0-8.686 1.968-11.76 5.858-2.9 3.598-4.376 7.875-4.376 12.707 0 4.982 1.477 9.148 4.387 12.35 2.91 3.185 6.8 4.8 11.605 4.8 4.717 0 8.63-1.946 11.65-5.787 2.766-3.549 4.165-7.924 4.165-12.972 0-4.91-1.41-8.999-4.232-12.15-2.898-3.18-6.756-4.806-11.44-4.806zm.319 41.605c-6.866.04-12.785-2.27-17.58-6.871-4.782-4.596-7.213-10.24-7.213-16.775 0-6.877 2.398-12.658 7.159-17.177 4.607-4.424 10.316-6.662 16.984-6.662 6.667 0 12.464 2.32 17.204 6.905 4.733 4.585 7.152 10.399 7.152 17.27 0 6.293-2.226 11.76-6.623 16.223-4.563 4.657-10.327 7.037-17.083 7.087M322.496 1075.65l14.504-.011v5.918s-13.566-.017-14.504-.017v11.693c3.175.073 17.744.012 17.915.012l.492-.011v6.067l-26.276.017v-.507l.033-44.73h29.052l-.01 6.36-21.206-.018v15.226zM386.827 1076.664h-11.583c.452 1.168 5.081 12.884 5.864 14.85.749-1.978 5.279-13.693 5.72-14.85zm-1.256 22.654h-7.251l-18.439-45.237h6.976s5.985 15.97 6.205 16.598h16.29c.22-.623 6.326-16.598 6.326-16.598h8.662l-18.45 45.237h-.319M287.427 1064.298s-7.505 9.374-9.39 11.743c1.554.562 4.265 1.78 6.337 3.95 2.26 2.36 3.405 5.06 3.405 7.997 0 3.317-1.245 6.045-3.735 8.1-2.579 2.133-6.161 3.219-10.658 3.219H258.375v-45.226h8.068v.7c-.22 1.516-.231 3.84-.231 9.214v29.675c7.372.07 10.304-.86 11.45-1.67 1.543-1.097 2.304-2.679 2.293-4.85-.033-4.998-3.686-7.979-11.186-9.109l-.849-.116 15.837-20.29c1.896-2.363 4.629-3.554 8.189-3.554h6.459l-1.345.92c-3.218 2.2-6.735 5.583-9.633 9.297zM259.014 1024.655h6.911v2.81h-6.91v5.571c1.498.033 8.442 0 8.53 0h.22v2.888l-12.498.01v-.237l.012-21.32h13.997l-.155 3.036-10.107-.017v7.263zM156.066 1035.908h-2.59l.01-13.281c0-3.962-.915-6.117-5.78-6.117h-.579c-3.24 0-4.871 2.066-4.871 6.117l.022 13.28h-3.748l-.01-13.291c0-1.61.06-2.711.187-3.384.232-1.212.727-2.26 1.51-3.102 1.41-1.532 3.428-2.32 5.984-2.32h2.425c2.546 0 4.585.788 5.985 2.32.771.843 1.267 1.89 1.487 3.108.144.667.2 1.769.2 3.378l-.012 13.292h-.22zM188.545 1035.908l-.011-.238s-.022-14.333-.022-15.59c-.805 1.01-12.476 15.828-12.476 15.828h-3.24v-21.58h2.81s.022 14.868.022 16.135c.794-1.02 12.641-16.124 12.641-16.124l3.108-.011v21.58H188.545zM207.281 1035.908v-21.58h3.703l.022 21.58h-3.725zM342.246 1014.328h3.715v21.579h-3.747v-16.846l.032-4.733M239.75 1035.908s-5.764-15.767-6.172-16.913c-.42 1.152-6.073 16.913-6.073 16.913h-4.243l8.05-21.597h3.384l8.327 21.591h-3.273zM323.985 1025.266c-.011.011-2.899 1.428-2.899 1.428l-2.48 1.217c-1.819.948-2.722 1.99-2.722 3.081 0 .92.419 1.592 1.268 2.061.65.38 1.576.557 2.733.523 1.885-.055 3.824-.617 4.816-1.4l.386-.297v3.83l-.166.044c-1.51.473-3.151.721-4.86.721-2.22 0-4.106-.446-5.588-1.316-1.807-1.02-2.7-2.541-2.7-4.497 0-1.995 1.003-3.665 2.987-4.937.01-.011 1.058-.53 1.058-.53l4.31-2.11c1.807-.954 2.733-2.061 2.733-3.312 0-.943-.486-1.697-1.489-2.293a5.356 5.356 0 0 0-2.854-.798c-2.336.017-4.519.595-6.48 1.735l-.43.254.562-3.77.143-.043c1.73-.65 3.703-.992 5.83-.992 2.635 0 4.893.689 6.513 1.984 1.55 1.24 2.315 2.887 2.315 4.899 0 1.746-1.003 3.257-2.986 4.518zM360.1 1035.99v-.237l-.01-2.59s5.566 0 6.018-.011v-18.775h3.714l.011 18.775h6.15v2.838H360.1zM400.307 1035.968s-5.51-8.503-5.886-9.087c-.375.584-5.786 9.109-5.786 9.109H384.348l7.759-12.206-.022-9.407h3.736l.011 9.402c.088.126 8.09 12.189 8.09 12.189h-3.615zM297.082 1019.243s-3.571 4.464-4.474 5.6c.749.27 2.027.848 3.008 1.873 1.08 1.13 1.631 2.413 1.631 3.818 0 1.577-.595 2.877-1.785 3.863-1.246 1.02-2.943 1.527-5.07 1.527H283.25v-21.552h3.824v.342c-.098.721-.098 1.769-.098 4.386v14.146c3.504.027 4.892-.414 5.444-.805.75-.523 1.113-1.273 1.102-2.309-.011-2.38-1.763-3.797-5.334-4.337l-.397-.055 7.538-9.671c.905-1.113 2.204-1.697 3.891-1.697h3.086l-.64.452c-1.531 1.035-3.218 2.655-4.584 4.42z" style="fill:#d8cbb7;fill-opacity:1;fill-rule:nonzero;stroke:none" transform="matrix(.7008 0 0 -.7008 -76.822 787.325)"/></svg>